<mxfile host="app.diagrams.net" modified="2023-12-06T17:55:25.384Z" agent="Mozilla/5.0 (Windows NT 10.0; Win64; x64) AppleWebKit/537.36 (KHTML, like Gecko) Chrome/118.0.5993.2470 YaBrowser/23.11.0.2470 Yowser/2.5 Safari/537.36" etag="3M2dT9YCZhqFrZXVXLDD" version="22.1.6" type="device">
  <diagram name="Страница — 1" id="Yy7QEIXlfedrnILg03sq">
    <mxGraphModel dx="2069" dy="575" grid="1" gridSize="10" guides="1" tooltips="1" connect="1" arrows="1" fold="1" page="1" pageScale="1" pageWidth="827" pageHeight="1169" math="0" shadow="0">
      <root>
        <mxCell id="0" />
        <mxCell id="1" parent="0" />
        <mxCell id="VD14Jv4uV9oGx2VOs8C5-1" value="List" style="swimlane;fontStyle=0;childLayout=stackLayout;horizontal=1;startSize=26;horizontalStack=0;resizeParent=1;resizeParentMax=0;resizeLast=0;collapsible=1;marginBottom=0;align=center;fontSize=14;" vertex="1" parent="1">
          <mxGeometry x="200" y="80" width="160" height="116" as="geometry" />
        </mxCell>
        <mxCell id="VD14Jv4uV9oGx2VOs8C5-2" value="Item 1" style="text;strokeColor=none;fillColor=none;spacingLeft=4;spacingRight=4;overflow=hidden;rotatable=0;points=[[0,0.5],[1,0.5]];portConstraint=eastwest;fontSize=12;whiteSpace=wrap;html=1;" vertex="1" parent="VD14Jv4uV9oGx2VOs8C5-1">
          <mxGeometry y="26" width="160" height="30" as="geometry" />
        </mxCell>
        <mxCell id="VD14Jv4uV9oGx2VOs8C5-3" value="Item 2" style="text;strokeColor=none;fillColor=none;spacingLeft=4;spacingRight=4;overflow=hidden;rotatable=0;points=[[0,0.5],[1,0.5]];portConstraint=eastwest;fontSize=12;whiteSpace=wrap;html=1;" vertex="1" parent="VD14Jv4uV9oGx2VOs8C5-1">
          <mxGeometry y="56" width="160" height="30" as="geometry" />
        </mxCell>
        <mxCell id="VD14Jv4uV9oGx2VOs8C5-4" value="Item 3" style="text;strokeColor=none;fillColor=none;spacingLeft=4;spacingRight=4;overflow=hidden;rotatable=0;points=[[0,0.5],[1,0.5]];portConstraint=eastwest;fontSize=12;whiteSpace=wrap;html=1;" vertex="1" parent="VD14Jv4uV9oGx2VOs8C5-1">
          <mxGeometry y="86" width="160" height="30" as="geometry" />
        </mxCell>
        <mxCell id="VD14Jv4uV9oGx2VOs8C5-5" value="Pets" style="swimlane;fontStyle=0;childLayout=stackLayout;horizontal=1;startSize=26;horizontalStack=0;resizeParent=1;resizeParentMax=0;resizeLast=0;collapsible=1;marginBottom=0;align=center;fontSize=14;" vertex="1" parent="1">
          <mxGeometry x="-100" y="240" width="160" height="30" as="geometry" />
        </mxCell>
        <mxCell id="VD14Jv4uV9oGx2VOs8C5-9" value="Pets" style="swimlane;fontStyle=0;childLayout=stackLayout;horizontal=1;startSize=26;horizontalStack=0;resizeParent=1;resizeParentMax=0;resizeLast=0;collapsible=1;marginBottom=0;align=center;fontSize=14;" vertex="1" parent="1">
          <mxGeometry x="500" y="240" width="160" height="30" as="geometry" />
        </mxCell>
        <mxCell id="VD14Jv4uV9oGx2VOs8C5-25" style="edgeStyle=orthogonalEdgeStyle;rounded=0;orthogonalLoop=1;jettySize=auto;html=1;entryX=1;entryY=0.5;entryDx=0;entryDy=0;" edge="1" parent="1" source="VD14Jv4uV9oGx2VOs8C5-10" target="VD14Jv4uV9oGx2VOs8C5-5">
          <mxGeometry relative="1" as="geometry">
            <Array as="points">
              <mxPoint x="160" y="255" />
            </Array>
          </mxGeometry>
        </mxCell>
        <mxCell id="VD14Jv4uV9oGx2VOs8C5-10" value="Pets" style="swimlane;fontStyle=0;childLayout=stackLayout;horizontal=1;startSize=26;horizontalStack=0;resizeParent=1;resizeParentMax=0;resizeLast=0;collapsible=1;marginBottom=0;align=center;fontSize=14;" vertex="1" parent="1">
          <mxGeometry x="80" y="320" width="160" height="30" as="geometry" />
        </mxCell>
        <mxCell id="VD14Jv4uV9oGx2VOs8C5-24" style="edgeStyle=orthogonalEdgeStyle;rounded=0;orthogonalLoop=1;jettySize=auto;html=1;entryX=0.5;entryY=1;entryDx=0;entryDy=0;" edge="1" parent="1" source="VD14Jv4uV9oGx2VOs8C5-11" target="VD14Jv4uV9oGx2VOs8C5-5">
          <mxGeometry relative="1" as="geometry" />
        </mxCell>
        <mxCell id="VD14Jv4uV9oGx2VOs8C5-11" value="Pets" style="swimlane;fontStyle=0;childLayout=stackLayout;horizontal=1;startSize=26;horizontalStack=0;resizeParent=1;resizeParentMax=0;resizeLast=0;collapsible=1;marginBottom=0;align=center;fontSize=14;" vertex="1" parent="1">
          <mxGeometry x="-100" y="320" width="160" height="30" as="geometry" />
        </mxCell>
        <mxCell id="VD14Jv4uV9oGx2VOs8C5-31" style="edgeStyle=orthogonalEdgeStyle;rounded=0;orthogonalLoop=1;jettySize=auto;html=1;entryX=0;entryY=0.5;entryDx=0;entryDy=0;" edge="1" parent="1" source="VD14Jv4uV9oGx2VOs8C5-12" target="VD14Jv4uV9oGx2VOs8C5-5">
          <mxGeometry relative="1" as="geometry">
            <Array as="points">
              <mxPoint x="-200" y="255" />
            </Array>
          </mxGeometry>
        </mxCell>
        <mxCell id="VD14Jv4uV9oGx2VOs8C5-12" value="Pets" style="swimlane;fontStyle=0;childLayout=stackLayout;horizontal=1;startSize=26;horizontalStack=0;resizeParent=1;resizeParentMax=0;resizeLast=0;collapsible=1;marginBottom=0;align=center;fontSize=14;" vertex="1" parent="1">
          <mxGeometry x="-280" y="320" width="160" height="30" as="geometry" />
        </mxCell>
        <mxCell id="VD14Jv4uV9oGx2VOs8C5-34" style="edgeStyle=orthogonalEdgeStyle;rounded=0;orthogonalLoop=1;jettySize=auto;html=1;entryX=1;entryY=0.5;entryDx=0;entryDy=0;" edge="1" parent="1" source="VD14Jv4uV9oGx2VOs8C5-14" target="VD14Jv4uV9oGx2VOs8C5-9">
          <mxGeometry relative="1" as="geometry">
            <Array as="points">
              <mxPoint x="750" y="255" />
            </Array>
          </mxGeometry>
        </mxCell>
        <mxCell id="VD14Jv4uV9oGx2VOs8C5-14" value="Pets" style="swimlane;fontStyle=0;childLayout=stackLayout;horizontal=1;startSize=26;horizontalStack=0;resizeParent=1;resizeParentMax=0;resizeLast=0;collapsible=1;marginBottom=0;align=center;fontSize=14;" vertex="1" parent="1">
          <mxGeometry x="680" y="320" width="160" height="30" as="geometry" />
        </mxCell>
        <mxCell id="VD14Jv4uV9oGx2VOs8C5-33" style="edgeStyle=orthogonalEdgeStyle;rounded=0;orthogonalLoop=1;jettySize=auto;html=1;entryX=0.5;entryY=1;entryDx=0;entryDy=0;" edge="1" parent="1" source="VD14Jv4uV9oGx2VOs8C5-15" target="VD14Jv4uV9oGx2VOs8C5-9">
          <mxGeometry relative="1" as="geometry" />
        </mxCell>
        <mxCell id="VD14Jv4uV9oGx2VOs8C5-15" value="Pets" style="swimlane;fontStyle=0;childLayout=stackLayout;horizontal=1;startSize=26;horizontalStack=0;resizeParent=1;resizeParentMax=0;resizeLast=0;collapsible=1;marginBottom=0;align=center;fontSize=14;" vertex="1" parent="1">
          <mxGeometry x="500" y="320" width="160" height="30" as="geometry" />
        </mxCell>
        <mxCell id="VD14Jv4uV9oGx2VOs8C5-32" style="edgeStyle=orthogonalEdgeStyle;rounded=0;orthogonalLoop=1;jettySize=auto;html=1;entryX=0;entryY=0.5;entryDx=0;entryDy=0;" edge="1" parent="1" source="VD14Jv4uV9oGx2VOs8C5-16" target="VD14Jv4uV9oGx2VOs8C5-9">
          <mxGeometry relative="1" as="geometry">
            <Array as="points">
              <mxPoint x="400" y="255" />
            </Array>
          </mxGeometry>
        </mxCell>
        <mxCell id="VD14Jv4uV9oGx2VOs8C5-16" value="Pets" style="swimlane;fontStyle=0;childLayout=stackLayout;horizontal=1;startSize=26;horizontalStack=0;resizeParent=1;resizeParentMax=0;resizeLast=0;collapsible=1;marginBottom=0;align=center;fontSize=14;" vertex="1" parent="1">
          <mxGeometry x="320" y="320" width="160" height="30" as="geometry" />
        </mxCell>
      </root>
    </mxGraphModel>
  </diagram>
</mxfile>
